<?xml version="1.0" standalone="no"?><!DOCTYPE svg PUBLIC "-//W3C//DTD SVG 1.1//EN" "http://www.w3.org/Graphics/SVG/1.1/DTD/svg11.dtd"><svg t="1610253402350" class="icon" viewBox="0 0 1024 1024" version="1.1" xmlns="http://www.w3.org/2000/svg" p-id="3331" xmlns:xlink="http://www.w3.org/1999/xlink" width="200" height="200"><defs><style type="text/css"></style></defs><path d="M398.164 590.749c-7.612 0.244-14.363 6.844-15.394 14.887-0.956 7.988 4.238 14.4 11.906 14.288 7.8-0.131 14.85-6.919 15.844-15.094 0.806-8.156-4.744-14.512-12.356-14.081z m-51.806 9.15c-23.438 1.106-44.662 21.544-47.719 46.2-3.188 24.806 13.331 44.7 36.938 44.287 23.944-0.375 46.012-21.356 48.938-46.669 2.625-25.369-14.381-44.813-38.156-43.819z" fill="#FFFFFF" p-id="3332"></path><path d="M735.645 568.774C724.92 456.63 574.057 379.343 398.67 396.124 223.282 412.905 89.801 517.399 100.526 629.562c10.744 112.144 161.606 189.45 336.994 172.669 175.388-16.8 308.869-121.294 298.125-233.456zM514.92 612.237c-7.969 72.975-78.431 133.013-154.556 132.694-73.481-0.281-122.663-57.113-112.331-125.681 10.144-67.256 74.25-123.825 145.65-127.65 73.875-4.125 129.206 49.2 121.237 120.638z" fill="#FFFFFF" p-id="3333"></path><path d="M960.327 252.537C930.721 87.106 799.19 20.693 708.046 14.356c-17.138-1.65-33.056 8.681-35.419 25.238-2.269 16.106 9.262 32.137 25.237 35.419 59.625 13.163 172.444 30.525 202.294 198.412 2.606 17.025 16.631 35.175 37.837 30.563 15.525-3.431 29.4-12.056 22.331-51.45z m-265.182-46.219a20.776 20.776 0 0 0-3.55-0.296c-9.768 0-18.009 6.542-20.58 15.483-3.506 11.701 2.888 24.92 14.625 27.376 24.938 5.213 37.144 22.406 40.762 40.744 0 0 3.188 12.431 15.169 15.863 11.719 3.356 32.887-5.306 26.794-28.388-6.056-31.406-37.275-65.137-73.219-70.781z" fill="#E79014" p-id="3334"></path><path d="M710.315 117.668c-26.175-4.519-38.156 14.25-38.156 29.231 0 14.962 10.688 25.763 30.413 31.256 52.387 14.531 86.025 37.5 95.25 98.156 2.681 17.606 18.769 27 30.45 27 15.769 0 28.537-12.787 28.537-28.537 0-0.581-0.056-1.162-0.094-1.725l0.15-0.037c-9.975-77.813-68.288-141.825-146.55-155.344z" fill="#E79014" p-id="3335"></path><path d="M705.008 589.68c-10.519 109.031-165.975 196.331-334.556 192.038-156.225-3.863-260.325-86.119-243.075-181.556 16.819-92.7 144.506-172.819 294.694-181.688 161.325-9.506 293.194 65.55 282.938 171.206z m-24.581-174.731c-6.225 0.169-8.85 0.9-9.787-1.331-0.769-1.819 0.15-3.806 3.506-12.281 9.356-23.606 24.225-72.131-6.356-99.206-20.175-17.869-105.6-31.5-195.619 30.938-4.481 3.112-11.756 9.75-15.431 8.531-4.05-1.369-4.913-5.737-5.456-13.987-2.944-44.475 34.462-168.075-62.025-157.819-102.563 17.363-240.937 179.438-280.481 257.831-140.344 278.138 62.606 391.462 261.131 397.388 215.381 6.356 433.575-115.931 462.262-279.525 19.144-109.2-109.406-131.475-151.744-130.537z" fill="#D62629" p-id="3336"></path><path d="M393.684 491.599c-71.4 3.844-135.506 60.394-145.65 127.65-10.313 68.569 38.85 125.4 112.331 125.681 76.125 0.319 146.588-59.719 154.556-132.694 7.969-71.438-47.363-124.763-121.237-120.638z m-9.169 152.119c-2.925 25.312-24.994 46.275-48.938 46.669-23.625 0.413-40.144-19.481-36.938-44.287 3.056-24.656 24.281-45.094 47.719-46.2 23.775-0.994 40.781 18.45 38.156 43.819z m10.162-23.812c-7.65 0.113-12.844-6.3-11.906-14.288 1.031-8.025 7.781-14.644 15.394-14.887 7.594-0.431 13.163 5.925 12.356 14.063-0.994 8.194-8.044 14.981-15.844 15.113z" fill="#030000" p-id="3337"></path></svg>